# xmcd
#
# Track frame offsets:
#	150
#	12620
#	30058
#	52436
#	68934
#	82458
#	94138
#	112686
#	135026
#	149742
#	161584
#
# Disc length: 2418 seconds
# Revision: 0
# Processed by: cddbd v1.5.2PL0 Copyright (c) Steve Scherf et al.
# Submitted via: dBpowerAMP V12.0
#
DISCID=9609700b
DTITLE=Howlin' Wolf - The Back Door Wolf [MCA] (t)
DYEAR=1995
DGENRE=Blues
TTITLE0=Moving
TTITLE1=Coon On The Moon
TTITLE2=Speak Now Woman
TTITLE3=Trying To Forget You
TTITLE4=Stop Using Me
TTITLE5=Leave Here Walking
TTITLE6=The Back Door Wolf
TTITLE7=You Turn Slick On Me
TTITLE8=Watergate Blues
TTITLE9=Can't Stay Here
TTITLE10=Speak Now Woman
EXTD=
EXTT0=
EXTT1=
EXTT2=
EXTT3=
EXTT4=
EXTT5=
EXTT6=
EXTT7=
EXTT8=
EXTT9=
EXTT10=
PLAYORDER=
